<?xml version="1.0" encoding="UTF-8"?>
<!DOCTYPE svg PUBLIC "-//W3C//DTD SVG 1.1//EN" "http://www.w3.org/Graphics/SVG/1.1/DTD/svg11.dtd">
<!-- Creator: CorelDRAW 2021 (64 Bit) -->
<svg xmlns="http://www.w3.org/2000/svg" xml:space="preserve" width="210mm" height="297mm" version="1.1" style="shape-rendering:geometricPrecision; text-rendering:geometricPrecision; image-rendering:optimizeQuality; fill-rule:evenodd; clip-rule:evenodd"
viewBox="0 0 21000 29700"
 xmlns:xlink="http://www.w3.org/1999/xlink"
 xmlns:xodm="http://www.corel.com/coreldraw/odm/2003">
 <defs>
  <style type="text/css">
   <![CDATA[
    .str0 {stroke:#373435;stroke-width:20;stroke-miterlimit:22.9256}
    .fil1 {fill:none}
    .fil0 {fill:#373435;fill-rule:nonzero}
   ]]>
  </style>
 </defs>
 <g id="Camada_x0020_1">
  <metadata id="CorelCorpID_0Corel-Layer"/>
  <path class="fil0" d="M5890.18 11255.89l0 -606.22 268.67 0c54.05,0 95.11,5.51 123.19,16.37 28.09,10.87 50.52,30.06 67.31,57.58 16.8,27.51 25.12,57.99 25.12,91.3 0,43.04 -13.97,79.3 -41.77,108.79 -27.8,29.5 -70.69,48.12 -128.83,56.17 21.31,10.16 37.39,20.32 48.4,30.19 23.42,21.45 45.58,48.4 66.32,80.72l104.85 165.1 -100.19 0 -80.15 -126.15c-23.29,-36.55 -42.62,-64.35 -57.72,-83.68 -15.24,-19.34 -28.78,-32.74 -40.78,-40.5 -11.85,-7.62 -24.13,-12.98 -36.55,-16.09 -9.03,-1.83 -23.84,-2.82 -44.59,-2.82l-92.85 0 0 269.24 -80.43 0zm80.43 -338.67l172.16 0c36.69,0 65.19,-3.81 85.79,-11.43 20.61,-7.48 36.27,-19.61 46.85,-36.4 10.73,-16.66 16.09,-34.72 16.09,-54.33 0,-28.65 -10.3,-52.36 -31.05,-70.84 -20.74,-18.49 -53.48,-27.66 -98.21,-27.66l-191.63 0 0 200.66zm504.76 43.61c0,-100.48 27.09,-179.22 81.14,-236.08 54.05,-56.87 123.75,-85.24 209.27,-85.24 56.02,0 106.4,13.41 151.41,40.08 44.87,26.67 79.16,63.92 102.73,111.76 23.57,47.7 35.42,101.88 35.42,162.42 0,61.38 -12.42,116.42 -37.25,164.82 -24.84,48.54 -59.98,85.23 -105.41,110.07 -45.58,24.97 -94.69,37.39 -147.33,37.39 -57.15,0 -108.09,-13.83 -153.1,-41.35 -44.88,-27.51 -79.02,-65.05 -102.17,-112.74 -23.14,-47.56 -34.71,-97.94 -34.71,-151.13zm82.97 1.41c0,72.95 19.62,130.38 58.85,172.29 39.23,41.91 88.47,62.94 147.74,62.94 60.4,0 109.93,-21.17 149.02,-63.5 38.94,-42.33 58.42,-102.45 58.42,-180.34 0,-49.25 -8.33,-92.29 -24.98,-128.98 -16.65,-36.69 -41.06,-65.19 -73.1,-85.37 -32.17,-20.18 -68.15,-30.34 -108.09,-30.34 -56.73,0 -105.55,19.47 -146.47,58.42 -40.92,38.95 -61.39,103.86 -61.39,194.88zm600.15 293.65l0 -606.22 208.85 0c47.13,0 83.11,2.83 107.95,8.61 34.71,8.05 64.35,22.58 88.9,43.46 32.03,27.1 55.88,61.53 71.68,103.58 15.95,42.05 23.85,90.17 23.85,144.22 0,46 -5.36,86.78 -16.08,122.34 -10.73,35.56 -24.56,65.05 -41.35,88.34 -16.93,23.28 -35.28,41.62 -55.32,54.89 -19.89,13.4 -44.02,23.56 -72.25,30.48 -28.36,6.91 -60.81,10.3 -97.5,10.3l-218.73 0zm80.44 -71.12l129.26 0c39.93,0 71.26,-3.67 93.98,-11.15 22.71,-7.48 40.78,-17.92 54.32,-31.47 18.91,-19.05 33.73,-44.73 44.31,-76.9 10.59,-32.18 15.95,-71.12 15.95,-116.98 0,-63.5 -10.44,-112.33 -31.19,-146.48 -20.74,-34.15 -46,-57.01 -75.77,-68.58 -21.45,-8.32 -56.03,-12.42 -103.72,-12.42l-127.14 0 0 463.98zm532.7 71.12l0 -606.22 268.67 0c54.05,0 95.11,5.51 123.19,16.37 28.09,10.87 50.52,30.06 67.31,57.58 16.8,27.51 25.12,57.99 25.12,91.3 0,43.04 -13.97,79.3 -41.77,108.79 -27.8,29.5 -70.69,48.12 -128.83,56.17 21.31,10.16 37.39,20.32 48.4,30.19 23.42,21.45 45.58,48.4 66.32,80.72l104.85 165.1 -100.19 0 -80.15 -126.15c-23.29,-36.55 -42.62,-64.35 -57.72,-83.68 -15.24,-19.34 -28.78,-32.74 -40.78,-40.5 -11.85,-7.62 -24.13,-12.98 -36.55,-16.09 -9.03,-1.83 -23.84,-2.82 -44.59,-2.82l-92.85 0 0 269.24 -80.43 0zm80.43 -338.67l172.16 0c36.69,0 65.19,-3.81 85.79,-11.43 20.61,-7.48 36.27,-19.61 46.85,-36.4 10.73,-16.66 16.09,-34.72 16.09,-54.33 0,-28.65 -10.3,-52.36 -31.05,-70.84 -20.74,-18.49 -53.48,-27.66 -98.21,-27.66l-191.63 0 0 200.66zm542.86 338.67l0 -606.22 80.43 0 0 606.22 -80.43 0zm505.32 -237.91l0 -71.12 256.54 0 0 224.65c-39.37,31.32 -80.01,55.03 -121.92,70.83 -41.91,15.81 -84.95,23.71 -128.98,23.71 -59.55,0 -113.59,-12.7 -162.28,-38.24 -48.54,-25.4 -85.37,-62.37 -110.06,-110.49 -24.84,-48.26 -37.26,-102.17 -37.26,-161.57 0,-58.99 12.28,-114.02 36.97,-165.25 24.7,-51.08 60.12,-89.04 106.4,-113.73 46.29,-24.84 99.63,-37.26 160.02,-37.26 43.75,0 83.4,7.06 118.82,21.31 35.42,14.25 63.22,34.01 83.26,59.27 20.17,25.4 35.41,58.56 45.86,99.34l-72.39 19.76c-9.18,-30.77 -20.46,-55.04 -33.87,-72.82 -13.55,-17.64 -32.74,-31.75 -57.86,-42.33 -24.97,-10.58 -52.77,-15.95 -83.39,-15.95 -36.55,0 -68.16,5.65 -94.97,16.8 -26.67,11.14 -48.12,25.82 -64.63,44.16 -16.37,18.21 -29.07,38.25 -38.1,59.98 -15.38,37.67 -23.14,78.31 -23.14,122.2 0,54.19 9.31,99.48 27.8,136.03 18.62,36.41 45.72,63.5 81.14,81.14 35.56,17.64 73.23,26.53 113.17,26.53 34.71,0 68.58,-6.77 101.6,-20.18 33.02,-13.55 57.99,-27.8 75.07,-43.18l0 -113.59 -177.8 0zm350.38 -57.15c0,-100.48 27.09,-179.22 81.14,-236.08 54.05,-56.87 123.75,-85.24 209.27,-85.24 56.02,0 106.4,13.41 151.41,40.08 44.87,26.67 79.16,63.92 102.73,111.76 23.57,47.7 35.42,101.88 35.42,162.42 0,61.38 -12.42,116.42 -37.25,164.82 -24.84,48.54 -59.98,85.23 -105.41,110.07 -45.58,24.97 -94.69,37.39 -147.33,37.39 -57.15,0 -108.09,-13.83 -153.1,-41.35 -44.88,-27.51 -79.02,-65.05 -102.17,-112.74 -23.14,-47.56 -34.71,-97.94 -34.71,-151.13zm82.97 1.41c0,72.95 19.62,130.38 58.85,172.29 39.23,41.91 88.47,62.94 147.74,62.94 60.4,0 109.93,-21.17 149.02,-63.5 38.94,-42.33 58.42,-102.45 58.42,-180.34 0,-49.25 -8.33,-92.29 -24.98,-128.98 -16.65,-36.69 -41.06,-65.19 -73.1,-85.37 -32.17,-20.18 -68.15,-30.34 -108.09,-30.34 -56.73,0 -105.55,19.47 -146.47,58.42 -40.92,38.95 -61.39,103.86 -61.39,194.88zm837.08 293.65l0 -606.22 437.73 0 0 71.12 -357.3 0 0 186.27 334.44 0 0 71.12 -334.44 0 0 206.59 371.69 0 0 71.12 -452.12 0zm953.91 0l0 -256.82 -233.68 -349.4 96.52 0 119.8 183.45c22.3,34.01 43.04,68.02 61.95,102.02 18.49,-31.75 40.92,-67.31 67.03,-106.82l117.4 -178.65 93.56 0 -242.15 349.4 0 256.82 -80.43 0zm790.93 -606.22l80.44 0 0 350.1c0,60.96 -6.92,109.36 -20.61,145.21 -13.83,35.7 -38.66,64.91 -74.5,87.34 -35.99,22.44 -82.98,33.73 -141.4,33.73 -56.58,0 -103.01,-9.74 -138.99,-29.35 -36.13,-19.62 -61.81,-47.84 -77.19,-84.95 -15.38,-37.11 -23.14,-87.77 -23.14,-151.98l0 -350.1 80.43 0 0 349.96c0,52.64 4.94,91.58 14.68,116.42 9.73,24.98 26.38,44.31 50.23,57.71 23.71,13.55 52.78,20.32 87.07,20.32 58.7,0 100.61,-13.4 125.59,-40.07 24.97,-26.81 37.39,-78.18 37.39,-154.38l0 -349.96zm216.05 606.22l0 -606.22 268.67 0c54.05,0 95.11,5.51 123.19,16.37 28.09,10.87 50.52,30.06 67.31,57.58 16.8,27.51 25.12,57.99 25.12,91.3 0,43.04 -13.97,79.3 -41.77,108.79 -27.8,29.5 -70.69,48.12 -128.83,56.17 21.31,10.16 37.39,20.32 48.4,30.19 23.42,21.45 45.58,48.4 66.32,80.72l104.85 165.1 -100.19 0 -80.15 -126.15c-23.29,-36.55 -42.62,-64.35 -57.72,-83.68 -15.24,-19.34 -28.78,-32.74 -40.78,-40.5 -11.85,-7.62 -24.13,-12.98 -36.55,-16.09 -9.03,-1.83 -23.84,-2.82 -44.59,-2.82l-92.85 0 0 269.24 -80.43 0zm80.43 -338.67l172.16 0c36.69,0 65.19,-3.81 85.79,-11.43 20.61,-7.48 36.27,-19.61 46.85,-36.4 10.73,-16.66 16.09,-34.72 16.09,-54.33 0,-28.65 -10.3,-52.36 -31.05,-70.84 -20.74,-18.49 -53.48,-27.66 -98.21,-27.66l-191.63 0 0 200.66zm542.86 338.67l0 -606.22 80.43 0 0 606.22 -80.43 0zm456.07 0l0 -606.22 82.41 0 318.06 475.83 0 -475.83 77.05 0 0 606.22 -82.41 0 -318.07 -475.83 0 475.83 -77.04 0zm587.73 -295.06c0,-100.48 27.09,-179.22 81.14,-236.08 54.05,-56.87 123.75,-85.24 209.27,-85.24 56.02,0 106.4,13.41 151.41,40.08 44.87,26.67 79.16,63.92 102.73,111.76 23.57,47.7 35.42,101.88 35.42,162.42 0,61.38 -12.42,116.42 -37.25,164.82 -24.84,48.54 -59.98,85.23 -105.41,110.07 -45.58,24.97 -94.69,37.39 -147.33,37.39 -57.15,0 -108.09,-13.83 -153.1,-41.35 -44.88,-27.51 -79.02,-65.05 -102.17,-112.74 -23.14,-47.56 -34.71,-97.94 -34.71,-151.13zm82.97 1.41c0,72.95 19.62,130.38 58.85,172.29 39.23,41.91 88.47,62.94 147.74,62.94 60.4,0 109.93,-21.17 149.02,-63.5 38.94,-42.33 58.42,-102.45 58.42,-180.34 0,-49.25 -8.33,-92.29 -24.98,-128.98 -16.65,-36.69 -41.06,-65.19 -73.1,-85.37 -32.17,-20.18 -68.15,-30.34 -108.09,-30.34 -56.73,0 -105.55,19.47 -146.47,58.42 -40.92,38.95 -61.39,103.86 -61.39,194.88zm839.62 293.65l0 -606.22 408.94 0 0 71.12 -328.51 0 0 188.81 284.48 0 0 71.12 -284.48 0 0 275.17 -80.43 0zm399.77 0l232.55 -606.22 88.2 0 246.8 606.22 -91.3 0 -70.13 -183.73 -255.27 0 -65.76 183.73 -85.09 0zm174.41 -248.92l206.59 0 -63.22 -168.06c-19.05,-51.09 -33.44,-93.28 -43.46,-126.58 -8.32,39.51 -19.47,78.31 -33.44,116.7l-66.47 177.94zm453.4 248.92l0 -606.22 227.47 0c46.28,0 83.4,6.07 111.48,18.35 27.94,12.28 49.81,31.18 65.61,56.73 15.95,25.4 23.85,52.07 23.85,80.01 0,25.82 -7.05,50.23 -21.02,73.09 -13.97,22.86 -35.14,41.35 -63.5,55.46 36.69,10.72 64.91,29.07 84.52,55.03 19.76,25.83 29.64,56.45 29.64,91.72 0,28.51 -6.07,54.9 -18.07,79.31 -11.99,24.41 -26.81,43.18 -44.45,56.44 -17.64,13.13 -39.79,23.15 -66.32,29.92 -26.67,6.77 -59.27,10.16 -97.93,10.16l-231.28 0zm80.43 -351.37l131.09 0c35.56,0 61.1,-2.4 76.49,-7.05 20.46,-6.07 35.84,-16.23 46.14,-30.34 10.3,-14.11 15.52,-31.75 15.52,-53.06 0,-20.18 -4.8,-37.96 -14.53,-53.2 -9.6,-15.38 -23.43,-25.96 -41.35,-31.61 -17.92,-5.64 -48.68,-8.47 -92.14,-8.47l-121.22 0 0 183.73zm0 280.25l150.99 0c25.96,0 44.17,-0.99 54.75,-2.96 18.35,-3.25 33.87,-8.75 46.29,-16.51 12.41,-7.76 22.57,-19.05 30.62,-33.87 8.04,-14.82 11.99,-31.89 11.99,-51.22 0,-22.72 -5.78,-42.34 -17.5,-59.13 -11.57,-16.79 -27.65,-28.5 -48.26,-35.28 -20.46,-6.77 -50.09,-10.16 -88.61,-10.16l-140.27 0 0 209.13zm719.53 71.12l0 -606.22 80.43 0 0 535.1 298.03 0 0 71.12 -378.46 0zm407.81 0l232.55 -606.22 88.2 0 246.8 606.22 -91.3 0 -70.13 -183.73 -255.27 0 -65.76 183.73 -85.09 0zm174.41 -248.92l206.59 0 -63.22 -168.06c-19.05,-51.09 -33.44,-93.28 -43.46,-126.58 -8.32,39.51 -19.47,78.31 -33.44,116.7l-66.47 177.94zm453.4 248.92l0 -606.22 227.47 0c46.28,0 83.4,6.07 111.48,18.35 27.94,12.28 49.81,31.18 65.61,56.73 15.95,25.4 23.85,52.07 23.85,80.01 0,25.82 -7.05,50.23 -21.02,73.09 -13.97,22.86 -35.14,41.35 -63.5,55.46 36.69,10.72 64.91,29.07 84.52,55.03 19.76,25.83 29.64,56.45 29.64,91.72 0,28.51 -6.07,54.9 -18.07,79.31 -11.99,24.41 -26.81,43.18 -44.45,56.44 -17.64,13.13 -39.79,23.15 -66.32,29.92 -26.67,6.77 -59.27,10.16 -97.93,10.16l-231.28 0zm80.43 -351.37l131.09 0c35.56,0 61.1,-2.4 76.49,-7.05 20.46,-6.07 35.84,-16.23 46.14,-30.34 10.3,-14.11 15.52,-31.75 15.52,-53.06 0,-20.18 -4.8,-37.96 -14.53,-53.2 -9.6,-15.38 -23.43,-25.96 -41.35,-31.61 -17.92,-5.64 -48.68,-8.47 -92.14,-8.47l-121.22 0 0 183.73zm0 280.25l150.99 0c25.96,0 44.17,-0.99 54.75,-2.96 18.35,-3.25 33.87,-8.75 46.29,-16.51 12.41,-7.76 22.57,-19.05 30.62,-33.87 8.04,-14.82 11.99,-31.89 11.99,-51.22 0,-22.72 -5.78,-42.34 -17.5,-59.13 -11.57,-16.79 -27.65,-28.5 -48.26,-35.28 -20.46,-6.77 -50.09,-10.16 -88.61,-10.16l-140.27 0 0 209.13z"/>
  <rect class="fil1 str0" x="5467.41" y="10259.93" width="12968.5" height="1341.93"/>
 </g>
</svg>
