<?xml version="1.0" encoding="UTF-8"?>
<!DOCTYPE svg PUBLIC "-//W3C//DTD SVG 1.1//EN" "http://www.w3.org/Graphics/SVG/1.1/DTD/svg11.dtd">
<!-- Creator: CorelDRAW 2021 (64 Bit) -->
<svg xmlns="http://www.w3.org/2000/svg" xml:space="preserve" width="210mm" height="297mm" version="1.1" style="shape-rendering:geometricPrecision; text-rendering:geometricPrecision; image-rendering:optimizeQuality; fill-rule:evenodd; clip-rule:evenodd"
viewBox="0 0 21000 29700"
 xmlns:xlink="http://www.w3.org/1999/xlink"
 xmlns:xodm="http://www.corel.com/coreldraw/odm/2003">
 <defs>
  <style type="text/css">
   <![CDATA[
    .str0 {stroke:#373435;stroke-width:20;stroke-miterlimit:22.9256}
    .fil0 {fill:none}
   ]]>
  </style>
 </defs>
 <g id="boardoutline">
  <metadata id="CorelCorpID_0Corel-Layer"/>
  <path class="fil0 str0" d="M11233.89 9841.73l1.93 17.75 -1.93 17.74 -5.7 16.92 -9.2 15.29 -12.28 12.96 -14.77 10.01 -16.58 6.61 -17.61 2.89 -17.82 -0.97 -17.2 -4.77 -15.77 -8.36 -13.6 -11.56 -10.81 -14.21 -7.49 -16.2 -3.84 -17.43 0 -17.85 3.84 -17.43 7.49 -16.2 10.81 -14.2 13.6 -11.56 15.77 -8.36 17.2 -4.77 17.82 -0.97 17.61 2.89 16.58 6.6 14.77 10.02 12.28 12.96 9.2 15.29 5.7 16.91zm248.3 1507.09l5.7 16.92 1.93 17.74 -1.93 17.75 -5.7 16.91 -9.2 15.29 -12.28 12.96 -14.77 10.02 -16.58 6.6 -17.61 2.89 -17.82 -0.97 -17.2 -4.77 -15.77 -8.36 -13.6 -11.56 -10.81 -14.2 -7.49 -16.2 -3.84 -17.43 0 -17.85 3.84 -17.43 7.49 -16.2 10.81 -14.21 13.6 -11.56 15.77 -8.36 17.2 -4.77 17.82 -0.97 17.61 2.89 16.58 6.61 14.77 10.01 12.28 12.96 9.2 15.29zm508 0l5.7 16.92 1.93 17.74 -1.93 17.75 -5.7 16.91 -9.2 15.29 -12.27 12.96 -14.78 10.02 -16.58 6.6 -17.61 2.89 -17.82 -0.97 -17.2 -4.77 -15.77 -8.36 -13.6 -11.56 -10.8 -14.2 -7.5 -16.2 -3.84 -17.43 0 -17.85 3.84 -17.43 7.5 -16.2 10.8 -14.21 13.6 -11.56 15.77 -8.36 17.2 -4.77 17.82 -0.97 17.61 2.89 16.58 6.61 14.78 10.01 12.27 12.96 9.2 15.29zm508 0l5.7 16.92 1.93 17.74 -1.93 17.75 -5.7 16.91 -9.2 15.29 -12.27 12.96 -14.78 10.02 -16.58 6.6 -17.61 2.89 -17.82 -0.97 -17.2 -4.77 -15.77 -8.36 -13.6 -11.56 -10.8 -14.2 -7.5 -16.2 -3.83 -17.43 0 -17.85 3.83 -17.43 7.5 -16.2 10.8 -14.21 13.6 -11.56 15.77 -8.36 17.2 -4.77 17.82 -0.97 17.61 2.89 16.58 6.61 14.78 10.01 12.27 12.96 9.2 15.29zm508 0l5.7 16.92 1.93 17.74 -1.93 17.75 -5.7 16.91 -9.2 15.29 -12.27 12.96 -14.77 10.02 -16.59 6.6 -17.61 2.89 -17.82 -0.97 -17.2 -4.77 -15.77 -8.36 -13.6 -11.56 -10.8 -14.2 -7.5 -16.2 -3.83 -17.43 0 -17.85 3.83 -17.43 7.5 -16.2 10.8 -14.21 13.6 -11.56 15.77 -8.36 17.2 -4.77 17.82 -0.97 17.61 2.89 16.59 6.61 14.77 10.01 12.27 12.96 9.2 15.29zm254 0l5.7 16.92 1.93 17.74 -1.93 17.75 -5.7 16.91 -9.2 15.29 -12.27 12.96 -14.77 10.02 -16.58 6.6 -17.62 2.89 -17.82 -0.97 -17.2 -4.77 -15.77 -8.36 -13.6 -11.56 -10.8 -14.2 -7.5 -16.2 -3.83 -17.43 0 -17.85 3.83 -17.43 7.5 -16.2 10.8 -14.21 13.6 -11.56 15.77 -8.36 17.2 -4.77 17.82 -0.97 17.62 2.89 16.58 6.61 14.77 10.01 12.27 12.96 9.2 15.29zm-508 0l5.7 16.92 1.93 17.74 -1.93 17.75 -5.7 16.91 -9.2 15.29 -12.27 12.96 -14.78 10.02 -16.58 6.6 -17.61 2.89 -17.82 -0.97 -17.2 -4.77 -15.77 -8.36 -13.6 -11.56 -10.8 -14.2 -7.5 -16.2 -3.83 -17.43 0 -17.85 3.83 -17.43 7.5 -16.2 10.8 -14.21 13.6 -11.56 15.77 -8.36 17.2 -4.77 17.82 -0.97 17.61 2.89 16.58 6.61 14.78 10.01 12.27 12.96 9.2 15.29zm-508 0l5.7 16.92 1.93 17.74 -1.93 17.75 -5.7 16.91 -9.2 15.29 -12.27 12.96 -14.78 10.02 -16.58 6.6 -17.61 2.89 -17.82 -0.97 -17.2 -4.77 -15.77 -8.36 -13.6 -11.56 -10.8 -14.2 -7.5 -16.2 -3.83 -17.43 0 -17.85 3.83 -17.43 7.5 -16.2 10.8 -14.21 13.6 -11.56 15.77 -8.36 17.2 -4.77 17.82 -0.97 17.61 2.89 16.58 6.61 14.78 10.01 12.27 12.96 9.2 15.29zm-508 0l5.7 16.92 1.93 17.74 -1.93 17.75 -5.7 16.91 -9.2 15.29 -12.27 12.96 -14.78 10.02 -16.58 6.6 -17.61 2.89 -17.82 -0.97 -17.2 -4.77 -15.77 -8.36 -13.6 -11.56 -10.8 -14.2 -7.5 -16.2 -3.84 -17.43 0 -17.85 3.84 -17.43 7.5 -16.2 10.8 -14.21 13.6 -11.56 15.77 -8.36 17.2 -4.77 17.82 -0.97 17.61 2.89 16.58 6.61 14.78 10.01 12.27 12.96 9.2 15.29zm-508 0l5.7 16.92 1.93 17.74 -1.93 17.75 -5.7 16.91 -9.2 15.29 -12.28 12.96 -14.77 10.02 -16.58 6.6 -17.61 2.89 -17.82 -0.97 -17.2 -4.77 -15.77 -8.36 -13.6 -11.56 -10.81 -14.2 -7.49 -16.2 -3.84 -17.43 0 -17.85 3.84 -17.43 7.49 -16.2 10.81 -14.21 13.6 -11.56 15.77 -8.36 17.2 -4.77 17.82 -0.97 17.61 2.89 16.58 6.61 14.77 10.01 12.28 12.96 9.2 15.29zm513.7 -1507.09l1.93 17.75 -1.93 17.74 -5.7 16.92 -9.2 15.29 -12.27 12.96 -14.78 10.01 -16.58 6.61 -17.61 2.89 -17.82 -0.97 -17.2 -4.77 -15.77 -8.36 -13.6 -11.56 -10.8 -14.21 -7.5 -16.2 -3.84 -17.43 0 -17.85 3.84 -17.43 7.5 -16.2 10.8 -14.2 13.6 -11.56 15.77 -8.36 17.2 -4.77 17.82 -0.97 17.61 2.89 16.58 6.6 14.78 10.02 12.27 12.96 9.2 15.29 5.7 16.91zm-254 0l1.93 17.75 -1.93 17.74 -5.7 16.92 -9.2 15.29 -12.28 12.96 -14.77 10.01 -16.58 6.61 -17.61 2.89 -17.82 -0.97 -17.2 -4.77 -15.77 -8.36 -13.6 -11.56 -10.81 -14.21 -7.49 -16.2 -3.84 -17.43 0 -17.85 3.84 -17.43 7.49 -16.2 10.81 -14.2 13.6 -11.56 15.77 -8.36 17.2 -4.77 17.82 -0.97 17.61 2.89 16.58 6.6 14.77 10.02 12.28 12.96 9.2 15.29 5.7 16.91zm2280.31 1507.09l5.69 16.92 1.93 17.74 -1.93 17.75 -5.69 16.91 -9.21 15.29 -12.27 12.96 -14.77 10.02 -16.58 6.6 -17.62 2.89 -17.82 -0.97 -17.2 -4.77 -15.77 -8.36 -13.6 -11.56 -10.8 -14.2 -7.5 -16.2 -3.83 -17.43 0 -17.85 3.83 -17.43 7.5 -16.2 10.8 -14.21 13.6 -11.56 15.77 -8.36 17.2 -4.77 17.82 -0.97 17.62 2.89 16.58 6.61 14.77 10.01 12.27 12.96 9.21 15.29zm-248.11 1082.84l1.89 18.62 -1.89 18.62 -5.61 17.86 -9.08 16.37 -12.19 14.2 -14.8 11.45 -16.8 8.25 -18.12 4.69 -18.7 0.95 -18.5 -2.84 -17.55 -6.5 -15.88 -9.9 -13.57 -12.89 -10.69 -15.37 -7.38 -17.2 -3.77 -18.33 0 -18.71 3.77 -18.34 7.38 -17.2 10.78 -15.45 0.1 -987.29 -2.25 -10.24 0 -17.85 3.83 -17.43 7.5 -16.2 10.8 -14.21 13.6 -11.56 15.77 -8.36 17.2 -4.77 17.82 -0.97 17.62 2.89 16.58 6.61 14.77 10.01 12.27 12.96 9.21 15.29 5.69 16.92 1.93 17.74 -1.93 17.75 -5.69 16.91 -9.21 15.29 -5.51 5.82 0 951.29 5.92 6.9 9.08 16.37 5.61 17.85zm1919.29 88.64l-10.96 8.48 -16.8 8.25 -18.12 4.69 -18.69 0.95 -18.5 -2.84 -17.55 -6.5 -15.89 -9.9 -13.56 -12.89 -10.7 -15.37 -7.38 -17.2 -3.76 -18.33 0 -18.71 3.76 -18.34 7.38 -17.2 10.7 -15.36 13.56 -12.89 15.89 -9.9 17.55 -6.5 18.5 -2.84 18.69 0.95 18.12 4.69 16.8 8.24 11 8.52m-683.7 -996.82l-1.88 13.08 -5.49 12.02 -8.66 9.99 -11.12 7.15 -12.68 3.72 -13.21 0 -12.68 -3.72 -11.12 -7.15 -8.65 -9.99 -5.49 -12.02 -1.88 -13.08 1.88 -13.08 5.49 -12.02 8.65 -9.99 11.12 -7.14 12.68 -3.73 13.21 0 12.68 3.73 11.12 7.14 8.66 9.99 5.49 12.02 1.88 13.08zm-225.52 -34.66l5.7 16.92 1.93 17.74 -1.93 17.75 -5.7 16.91 -9.2 15.29 -12.28 12.96 -14.77 10.02 -16.58 6.6 -17.62 2.89 -17.82 -0.97 -17.2 -4.77 -15.76 -8.36 -13.61 -11.56 -10.8 -14.2 -7.49 -16.2 -3.84 -17.43 0 -17.85 3.84 -17.43 7.49 -16.2 10.8 -14.21 13.61 -11.56 15.76 -8.36 17.2 -4.77 17.82 -0.97 17.62 2.89 16.58 6.61 14.77 10.01 12.28 12.96 9.2 15.29zm-254 0l5.7 16.92 1.93 17.74 -1.93 17.75 -5.7 16.91 -9.21 15.29 -12.27 12.96 -14.77 10.02 -16.58 6.6 -17.62 2.89 -17.82 -0.97 -17.2 -4.77 -15.77 -8.36 -13.6 -11.56 -10.8 -14.2 -7.49 -16.2 -3.84 -17.43 0 -17.85 3.84 -17.43 7.49 -16.2 10.8 -14.21 13.6 -11.56 15.77 -8.36 17.2 -4.77 17.82 -0.97 17.62 2.89 16.58 6.61 14.77 10.01 12.27 12.96 9.21 15.29zm2932.57 248.47l-8.07 -1.24 -17.56 -6.5 -15.89 -9.9 -13.57 -12.9 -10.7 -15.37 -7.38 -17.21 -3.77 -18.34 0 -18.72 3.77 -18.34 7.38 -17.21 10.7 -15.37 13.57 -12.9 15.89 -9.9 17.56 -6.51 18.5 -2.83 18.7 0.95 18.13 4.69 16.81 8.24 11.07 8.57m414.17 452.1l6.82 0.35 18.12 4.69 16.81 8.24 14.8 11.46 12.19 14.2 9.08 16.36 5.6 17.86 1.9 18.62 -1.9 18.62 -5.6 17.86 -9.08 16.37 -12.19 14.2 -14.8 11.45 -16.81 8.25 -18.12 4.69 -6.78 0.34m213.97 -635.66l5.59 -13.04 10.7 -15.37 13.57 -12.9 15.89 -9.9 17.56 -6.51 18.51 -2.83 18.7 0.95 18.12 4.69 16.81 8.24 14.81 11.47 12.2 14.2 9.08 16.37 5.61 17.87 1.89 18.63 -1.89 18.63 -5.61 17.86 -9.08 16.37 -12.2 14.21 -14.81 11.46 -16.81 8.25 -18.12 4.69 -7.33 0.46m-796.51 36.99l383.11 383.11 -399.9 399.9 -1752.56 0m2472.67 -943.8l-628.18 0m414.17 452.1l-312.1 -312.1 574.5 0 3.7 -0.1 3.8 -0.3 3.7 -0.5 3.7 -0.7 3.6 -0.9 3.6 -1.1 3.5 -1.2 3.4 -1.5 3.4 -1.6 3.3 -1.9 3.1 -2 3.1 -2.1 2.9 -2.38m-2565.9 960.08l1781.6 0 3.7 -0.1 3.8 -0.3 3.7 -0.5 3.7 -0.7 3.6 -0.9 3.6 -1.1 3.5 -1.2 3.4 -1.5 3.4 -1.6 3.3 -1.9 3.1 -2 3.1 -2.1 2.9 -2.3 2.8 -2.5 1.9 -1.8 427.64 -427.64m-1866.63 -110.4l1.89 18.62 -1.89 18.62 -5.6 17.86 -9.08 16.37 -12.2 14.2 -14.8 11.45 -16.8 8.25 -18.12 4.69 -18.69 0.94 -18.5 -2.83 -17.55 -6.5 -15.89 -9.9 -3.29 -3.13 -1202.29 0 -2.5 1.7 -3.2 2 -3.3 1.7 -3.4 1.6 -3.5 1.4 -3.5 1.2 -3.6 1 -3.7 0.8 -3.7 0.6 -3.7 0.4 -3.7 0.3 -3.7 0 -3.8 -0.2 -3.7 -0.4 -3.7 -0.5 -3.7 -0.8 -3.6 -1 -3.5 -1.1 -3.5 -1.4 -3.4 -1.5 -3.4 -1.7 -3.2 -1.9 -3.1 -2.1 -3 -2.2 -2.9 -2.4 -2.8 -2.5 -2.6 -2.7 -2.5 -2.8 -2.3 -2.9 -2.1 -3.1 -2 -3.1 -1.9 -3.3 -1.6 -3.4 -1.5 -3.4 -1.2 -3.5 -1.1 -3.6 -0.9 -3.6 -0.7 -3.7 -0.5 -3.7 -0.32 -4.27 -5.66 -13.64 -3.77 -18.35 0 -18.72 3.77 -18.34 7.39 -17.21 10.69 -15.37 13.57 -12.9 15.89 -9.9 17.56 -6.5 18.51 -2.84 18.7 0.95 18.13 4.69 16.81 8.25 14.8 11.46 12.2 14.21 4.6 8.28 1139.03 0 0 -78.2 -0.4 -1.3 -0.9 -3.6 -0.7 -3.7 -0.5 -3.7 -0.3 -3.8 -0.1 -3.7 0 -505.1 0.1 -2.9 0.2 -3.7 0.5 -3.7 0.6 -3.7 0.9 -3.7 1 -3.6 1.2 -3.5 1.5 -3.5 1.6 -3.3 1.7 -3.3 2 -3.2 2.1 -3.1 2.3 -3 2.4 -2.8 2.6 -2.7 2.7 -2.6 2.9 -2.4 3 -2.2 3.1 -2.1 3.2 -2 3.3 -1.7 3.4 -1.6 3.5 -1.4 3.5 -1.2 3.6 -1 3.7 -0.8 3.7 -0.6 3.7 -0.4 3.7 -0.3 3.7 0 3.8 0.2 3.7 0.4 3.7 0.5 3.7 0.8 3.6 1 3.5 1.1 3.5 1.4 3.4 1.5 3.4 1.7 3.2 1.9 3.1 2.1 3 2.2 2.9 2.4 2.8 2.5 2.6 2.7 2.5 2.8 2.3 2.9 2.1 3.1 2 3.1 1.9 3.3 1.6 3.4 1.5 3.4 1.2 3.5 1.1 3.6 0.9 3.6 0.7 3.7 0.5 3.7 0.3 3.8 0.1 3.7 0 488.2 0.5 1.6 0.9 3.6 0.6 3.7 0.5 3.7 0.3 3.5 0.1 3.8 0 105.24 5.93 6.9 9.08 16.36 5.6 17.86zm-1719.11 -813.36l1371.6 0 5.2 0.2 3.7 0.4 3.7 0.5 3.7 0.8 3.6 1 3.5 1.1 3.5 1.4 3.4 1.5 3.4 1.7 3.2 1.9 3.1 2.1 3 2.2 2.9 2.4 2.8 2.5 2.6 2.7 2.5 2.8 2.3 2.9 2.1 3.1 2 3.1 1.9 3.3 1.6 3.4 1.5 3.4 1.2 3.5 1.1 3.6 0.9 3.6 0.7 3.7 0.5 3.7 0.3 3.8 0.1 3.7 0 88.9 -0.1 2.9 -0.2 3.7 -0.5 3.7 -0.6 3.7 -0.9 3.7 -1 3.6 -1.2 3.5 -1.5 3.5 -1.6 3.3 -1.7 3.3 -2 3.2 -2.1 3.1 -2.3 3 -2.4 2.8 -2.6 2.7 -2.7 2.6 -2.9 2.4 -3 2.2 -3.1 2.1 -3.2 2 -3.3 1.7 -3.4 1.6 -3.5 1.4 -3.5 1.2 -3.6 1 -3.7 0.8 -3.7 0.6 -3.7 0.4 -3.7 0.3 -3.7 0 -3.8 -0.2 -3.7 -0.4 -3.7 -0.5 -3.7 -0.8 -3.6 -1 -3.5 -1.1 -3.5 -1.4 -3.4 -1.5 -3.4 -1.7 -3.2 -1.9 -3.1 -2.1 -3 -2.2 -2.9 -2.4 -2.8 -2.5 -2.6 -2.7 -2.5 -2.8 -2.3 -2.9 -2.1 -3.1 -2 -3.1 -1.9 -3.3 -1.6 -3.4 -1.5 -3.4 -1.2 -3.5 -1.1 -3.6 -0.9 -3.6 -0.7 -3.7 -0.5 -3.7 -0.3 -3.8 -0.1 -3.7 0 -18.9 -1272.6 0 -113.81 113.81 -5.37 15.93 -4.92 8.17 0 464.2 9.97 11.61 9.09 16.37 5.6 17.86 1.9 18.63 -1.9 18.63 -5.6 17.87 -9.09 16.37 -12.2 14.2 -14.8 11.47 -16.81 8.24 -18.13 4.7 -18.7 0.94 -18.51 -2.83 -17.56 -6.5 -15.89 -9.91 -13.57 -12.9 -10.69 -15.37 -7.39 -17.2 -3.77 -18.35 0 -18.72 3.77 -18.34 7.39 -17.21 6.89 -9.91 0 -473.17 -0.72 -0.95 -7.49 -16.2 -3.84 -17.43 0 -17.85 3.84 -17.43 7.49 -16.2 10.8 -14.21 13.6 -11.56 15.77 -8.36 11.42 -3.17 134.73 -134.73 1.9 -1.8 2.8 -2.5 2.9 -2.3 3.1 -2.1 3.1 -2 3.3 -1.9 3.4 -1.6 3.4 -1.5 3.5 -1.2 3.6 -1.1 3.6 -0.9 3.7 -0.7 3.7 -0.5 3.8 -0.3 3.7 -0.1zm-1608.49 -1306.67l1.93 17.75 -1.93 17.74 -5.7 16.92 -9.2 15.29 -12.27 12.96 -14.78 10.01 -16.58 6.61 -17.61 2.89 -17.82 -0.97 -17.2 -4.77 -15.77 -8.36 -13.6 -11.56 -10.8 -14.21 -7.5 -16.2 -3.83 -17.43 0 -17.85 3.83 -17.43 7.5 -16.2 10.8 -14.2 13.6 -11.56 15.77 -8.36 17.2 -4.77 17.82 -0.97 17.61 2.89 16.58 6.6 14.78 10.02 12.27 12.96 9.2 15.29 5.7 16.91zm-508 35.49l-5.7 16.92 -9.2 15.29 -12.27 12.96 -14.78 10.01 -16.58 6.61 -17.61 2.89 -17.82 -0.97 -17.2 -4.77 -15.77 -8.36 -13.6 -11.56 -10.8 -14.21 -7.5 -16.2 -1.57 -7.12 -7.81 -7.81 -1.8 -1.9 -2.5 -2.8 -2.3 -2.9 -2.1 -3.1 -2 -3.1 -1.9 -3.3 -1.6 -3.4 -1.5 -3.4 -1.2 -3.5 -1.1 -3.6 -0.9 -3.6 -0.7 -3.7 -0.5 -3.7 -0.3 -3.8 -0.1 -3.7 -0.11 -1044.55 -10.8 -15.46 -7.39 -17.21 -3.76 -18.34 0 -18.73 3.76 -18.34 7.39 -17.2 10.7 -15.37 13.57 -12.9 15.89 -9.91 17.56 -6.5 18.5 -2.84 18.7 0.95 18.13 4.7 16.81 8.24 14.81 11.46 12.19 14.21 9.09 16.37 5.61 17.87 1.89 18.63 -1.89 18.62 -5.61 17.87 -9.09 16.37 -5.95 6.94 0 1007.58 6.76 2.69 14.78 10.02 12.27 12.96 9.2 15.29 5.7 16.91 1.93 17.75 -1.93 17.74zm205.29 -1160.72l0 1067.36 6.76 2.69 14.78 10.02 12.27 12.96 9.2 15.29 5.7 16.91 1.93 17.75 -1.93 17.74 -5.7 16.92 -9.2 15.29 -12.27 12.96 -14.78 10.01 -16.58 6.61 -17.61 2.89 -17.82 -0.97 -17.2 -4.77 -15.77 -8.36 -13.6 -11.56 -10.8 -14.21 -7.5 -16.2 -1.56 -7.11 -7.82 -7.82 -1.8 -1.9 -2.5 -2.8 -2.3 -2.9 -2.1 -3.1 -2 -3.1 -1.9 -3.3 -1.6 -3.4 -1.5 -3.4 -1.2 -3.5 -1.1 -3.6 -0.9 -3.6 -0.7 -3.7 -0.5 -3.7 -0.3 -3.8 -0.1 -3.7 0 -1104.9 0.1 -2.9 0.2 -3.7 0.5 -3.7 0.6 -3.7 0.9 -3.7 1 -3.6 1.2 -3.5 1.5 -3.5 1.6 -3.3 1.7 -3.3 2 -3.2 2.1 -3.1 2.3 -3 2.4 -2.8 2.6 -2.7 2.7 -2.6 2.9 -2.4 3 -2.2 3.1 -2.1 3.2 -2 3.3 -1.7 3.4 -1.6 3.5 -1.4 3.5 -1.2 3.6 -1 3.7 -0.8 3.7 -0.6 3.7 -0.4 3.7 -0.3 3.7 0 3.8 0.2 3.7 0.4 3.7 0.5 3.7 0.8 3.6 1 3.5 1.1 3.5 1.4 3.4 1.5 3.4 1.7 3.2 1.9 3.1 2.1 3 2.2 2.9 2.4 2.8 2.5 2.6 2.7 2.5 2.8 2.3 2.9 2.1 3.1 2 3.1 1.9 3.3 1.6 3.4 1.5 3.4 1.2 3.5 1.1 3.6 0.9 3.6 0.7 3.7 0.5 3.7 0.3 3.8 0.1 3.7zm3854.8 2301.8l2.4 2.8 2.3 3 2.2 3 2 3.2 1.8 3.3 1.7 3.3 1.4 3.5 1.3 3.5 1.1 3.6 0.9 3.6 0.7 3.7 0.5 3.7 0.3 3.7 0.1 3.7 -0.1 3.8 -8.8 167.6 828.3 0 237.75 -237.75 0 -2.44 3.77 -18.34 7.38 -17.21 10.7 -15.37 13.57 -12.9 15.89 -9.9 17.56 -6.51 16.86 -2.58 2.52 -2 3.1 -2.1 3.1 -2 3.3 -1.9 3.4 -1.6 3.4 -1.5 3.5 -1.2 3.6 -1.1 3.6 -0.9 3.7 -0.7 3.7 -0.5 3.8 -0.3 3.7 -0.1 676.59 0 3.38 -3.21 15.89 -9.9 17.56 -6.51 18.51 -2.83 18.7 0.95 18.12 4.69 16.81 8.24 14.81 11.47 12.2 14.2 9.08 16.37 5.61 17.87 1.89 18.63 -1.89 18.63 -5.61 17.86 -9.08 16.37 -12.2 14.21 -14.81 11.46 -16.81 8.25 -18.12 4.69 -18.7 0.95 -18.51 -2.84 -17.56 -6.5 -15.89 -9.9 -3.31 -3.15 -628.28 0 -1.43 4.56 -9.09 16.37 -12.19 14.21 -14.81 11.46 -16.81 8.25 -18.13 4.69 -6.81 0.35 -258.51 258.51 -1.9 1.8 -2.8 2.5 -2.9 2.3 -3.1 2.1 -3.1 2 -3.3 1.9 -3.4 1.6 -3.4 1.5 -3.5 1.2 -3.6 1.1 -3.6 0.9 -3.7 0.7 -3.7 0.5 -3.8 0.3 -3.7 0.1 -931.1 0 -5.1 -0.2 -3.7 -0.4 -3.7 -0.5 -3.7 -0.8 -3.6 -1 -3.6 -1.1 -3.5 -1.4 -3.4 -1.5 -3.3 -1.7 -3.2 -1.9 -3.2 -2 -3 -2.3 -2.9 -2.3 -5.4 -5.2 -2.4 -2.8 -2.3 -3 -2.2 -3 -2 -3.2 -1.8 -3.3 -1.7 -3.3 -1.4 -3.5 -1.3 -3.5 -1.1 -3.6 -0.9 -3.6 -0.7 -3.7 -0.5 -3.7 -0.3 -3.7 -0.1 -3.7 0.1 -3.8 11.1 -210.1 -498.7 -498.7 -2 -2.1 -2.5 -2.8 -2.3 -3 -2.1 -3 -2 -3.2 -1.8 -3.3 -1.6 -3.3 -1.5 -3.5 -1.2 -3.5 -1.1 -3.6 -0.9 -3.6 -0.6 -3.7 -0.5 -3.7 -0.3 -3.8 -0.1 -3.7 0.1 -3.7 0.3 -3.8 0.5 -3.7 0.8 -3.6 0.9 -3.7 1.1 -3.5 1.3 -3.6 1.4 -3.4 1.7 -3.4 1.8 -3.2 2 -3.2 2.2 -3 2.3 -2.9 2.5 -2.8 2.6 -2.7 2.8 -2.5 2.9 -2.4 3 -2.2 3.2 -2 3.2 -1.9 3.3 -1.7 3.4 -1.5 3.5 -1.4 3.6 -1.1 3.6 -1 3.7 -0.7 3.7 -0.6 3.7 -0.3 3.8 -0.2 3.7 0 3.7 0.3 3.7 0.4 3.7 0.7 3.7 0.8 3.6 1 3.5 1.2 3.5 1.4 3.4 1.6 3.3 1.8 3.2 1.9 3.1 2.1 2.9 2.3 2.9 2.4 2.7 2.6 522.5 522.5zm-3298.09 -1176.57l1.93 17.75 -1.93 17.74 -5.7 16.92 -9.2 15.29 -12.27 12.96 -14.78 10.01 -16.58 6.61 -17.61 2.89 -17.82 -0.97 -17.2 -4.77 -15.77 -8.36 -13.6 -11.56 -10.8 -14.21 -7.5 -16.2 -3.83 -17.43 0 -17.85 3.83 -17.43 7.5 -16.2 10.8 -14.2 13.6 -11.56 15.77 -8.36 17.2 -4.77 17.82 -0.97 17.61 2.89 16.58 6.6 14.78 10.02 12.27 12.96 9.2 15.29 5.7 16.91zm508 0l1.93 17.75 -1.93 17.74 -5.7 16.92 -9.2 15.29 -12.27 12.96 -14.77 10.01 -16.58 6.61 -17.62 2.89 -17.82 -0.97 -17.2 -4.77 -15.77 -8.36 -13.6 -11.56 -10.8 -14.21 -7.5 -16.2 -3.83 -17.43 0 -17.85 3.83 -17.43 7.5 -16.2 10.8 -14.2 13.6 -11.56 15.77 -8.36 17.2 -4.77 17.82 -0.97 17.62 2.89 16.58 6.6 14.77 10.02 12.27 12.96 9.2 15.29 5.7 16.91zm-254 0l1.93 17.75 -1.93 17.74 -5.7 16.92 -9.2 15.29 -12.27 12.96 -14.77 10.01 -16.59 6.61 -17.61 2.89 -17.82 -0.97 -17.2 -4.77 -15.77 -8.36 -13.6 -11.56 -10.8 -14.21 -7.5 -16.2 -3.83 -17.43 0 -17.85 3.83 -17.43 7.5 -16.2 10.8 -14.2 13.6 -11.56 15.77 -8.36 17.2 -4.77 17.82 -0.97 17.61 2.89 16.59 6.6 14.77 10.02 12.27 12.96 9.2 15.29 5.7 16.91zm280.65 -380.37l341.11 341.11 13.31 -11.31 15.77 -8.36 17.2 -4.77 17.82 -0.97 17.62 2.89 16.58 6.6 14.77 10.02 12.27 12.96 9.21 15.29 5.69 16.91 1.93 17.75 -1.93 17.74 -5.69 16.92 -9.21 15.29 -8.94 9.44 299.63 299.63 1942.3 0 5.2 0.2 3.7 0.4 3.7 0.5 3.7 0.8 3.6 1 3.5 1.1 3.5 1.4 3.4 1.5 3.4 1.7 3.2 1.9 3.1 2.1 3 2.2 2.9 2.4 2.8 2.5 2.6 2.7 2.5 2.8 2.3 2.9 2.1 3.1 2 3.1 1.9 3.3 1.6 3.4 1.5 3.4 1.2 3.5 1.1 3.6 0.9 3.6 0.7 3.7 0.5 3.7 0.3 3.8 0.1 3.7 0 256.8 -0.2 5.2 -0.4 3.7 -0.5 3.7 -0.8 3.7 -1 3.6 -1.1 3.5 -1.4 3.5 -1.5 3.4 -1.7 3.4 -1.9 3.2 -2.1 3.1 -2.2 3 -2.4 2.9 -2.5 2.8 -2.7 2.6 -2.8 2.5 -2.9 2.3 -3.1 2.1 -3.1 2 -3.3 1.9 -3.4 1.6 -3.4 1.5 -3.5 1.2 -3.6 1.1 -3.6 0.9 -3.7 0.7 -3.7 0.5 -3.8 0.3 -3.7 0.1 -254 0 -2.9 -0.1 -3.7 -0.2 -3.7 -0.5 -3.7 -0.6 -3.7 -0.9 -3.6 -1 -3.5 -1.2 -3.5 -1.5 -3.3 -1.6 -3.3 -1.7 -3.2 -2 -3.1 -2.1 -3 -2.3 -2.8 -2.4 -2.7 -2.6 -2.6 -2.7 -2.4 -2.9 -2.2 -3 -2.1 -3.1 -2 -3.2 -1.7 -3.3 -1.6 -3.4 -1.4 -3.5 -1.2 -3.5 -1 -3.6 -0.8 -3.7 -0.6 -3.7 -0.4 -3.7 -0.3 -3.7 0 -3.7 0.2 -3.8 0.4 -3.7 0.5 -3.7 0.8 -3.7 1 -3.6 1.1 -3.5 1.4 -3.5 1.5 -3.4 1.7 -3.4 1.9 -3.2 2.1 -3.1 2.2 -3 2.4 -2.9 2.5 -2.8 2.7 -2.6 2.8 -2.5 2.9 -2.3 3.1 -2.1 3.1 -2 3.3 -1.9 3.4 -1.6 3.4 -1.5 3.5 -1.2 3.6 -1.1 3.6 -0.9 3.7 -0.7 3.7 -0.5 3.8 -0.3 3.7 -0.1 184 0 0 -116.8 -1903.9 0 -3.7 -0.3 -3.7 -0.4 -3.7 -0.7 -3.7 -0.8 -3.6 -1 -3.5 -1.2 -3.5 -1.4 -3.4 -1.6 -3.3 -1.8 -3.2 -1.9 -3.1 -2.1 -2.9 -2.3 -2.9 -2.4 -2.7 -2.6 -453.68 -453.68 -3.3 9.82 -9.21 15.29 -12.27 12.96 -14.77 10.01 -16.58 6.61 -17.62 2.89 -17.82 -0.97 -17.2 -4.77 -15.77 -8.36 -13.6 -11.56 -10.8 -14.21 -7.5 -16.2 -3.83 -17.43 0 -17.85 3.83 -17.43 7.5 -16.2 10.8 -14.2 13.6 -11.56 15.77 -8.36 5.68 -1.57 -239.71 -239.71 -14.56 -5.39 -15.88 -9.91 -13.57 -12.89 -10.69 -15.36 -7.38 -17.2 -0.34 -1.67 -408.3 -408.3 -1.8 -1.9 -2.5 -2.8 -2.3 -2.9 -2.1 -3.1 -2 -3.1 -1.9 -3.3 -1.6 -3.4 -1.5 -3.4 -1.2 -3.5 -1.1 -3.6 -0.9 -3.6 -0.7 -3.7 -0.5 -3.7 -0.3 -3.8 -0.1 -3.7 0 -317.5 0.1 -2.9 0.2 -3.7 0.5 -3.7 0.6 -3.7 0.9 -3.7 1 -3.6 1.2 -3.5 1.5 -3.5 1.6 -3.3 1.7 -3.3 2 -3.2 2.1 -3.1 2.3 -3 2.4 -2.8 2.6 -2.7 2.7 -2.6 2.9 -2.4 3 -2.2 3.1 -2.1 3.2 -2 3.3 -1.7 3.4 -1.6 3.5 -1.4 3.5 -1.2 3.6 -1 3.7 -0.8 3.7 -0.6 3.7 -0.4 3.7 -0.3 3.7 0 3.8 0.2 3.7 0.4 3.7 0.5 3.7 0.8 3.6 1 3.5 1.1 3.5 1.4 3.4 1.5 3.4 1.7 3.2 1.9 3.1 2.1 3 2.2 2.9 2.4 2.8 2.5 2.6 2.7 2.5 2.8 2.3 2.9 2.1 3.1 2 3.1 1.9 3.3 1.6 3.4 1.5 3.4 1.2 3.5 1.1 3.6 0.9 3.6 0.7 3.7 0.5 3.7 0.3 3.8 0.1 3.7 0 288.5 368.97 368.97 3.74 -0.57 18.7 0.94 18.11 4.69 16.81 8.25 14.8 11.45 12.19 14.2 9.08 16.37 5.61 17.86 1.89 18.62 -0.84 8.28zm-215.16 -705.16l0 128.5 889.06 894.77 2.93 0.48 16.58 6.6 14.77 10.02 12.27 12.96 9.21 15.29 5.39 15.99 113.89 113.89 2435.1 12.6 5 0.2 3.7 0.4 3.7 0.6 3.7 0.8 3.6 1 3.6 1.1 3.5 1.4 3.4 1.5 3.3 1.7 3.2 1.9 3.1 2.1 3 2.2 2.9 2.4 2.8 2.6 2.6 2.7 2.4 2.8 2.3 2.9 2.2 3.1 2 3.2 1.8 3.2 1.6 3.4 1.4 3.4 1.3 3.6 1.1 3.6 0.9 3.6 0.6 3.7 0.5 3.7 0.3 3.7 0.1 3.7 -1.8 508 -0.2 5 -0.4 3.7 -0.5 3.7 -0.8 3.7 -1 3.6 -1.1 3.5 -1.4 3.5 -1.5 3.4 -1.7 3.4 -1.9 3.2 -2.1 3.1 -2.2 3 -2.4 2.9 -2.5 2.8 -2.7 2.6 -2.8 2.5 -2.9 2.3 -3.1 2.1 -3.1 2 -3.3 1.9 -3.4 1.6 -3.4 1.5 -3.5 1.2 -3.6 1.1 -3.6 0.9 -3.7 0.7 -3.7 0.5 -3.8 0.3 -3.7 0.1 -328.4 0 -2.9 -0.1 -3.7 -0.2 -3.7 -0.5 -3.7 -0.6 -3.7 -0.9 -3.6 -1 -3.5 -1.2 -3.5 -1.5 -3.3 -1.6 -3.3 -1.7 -3.2 -2 -3.1 -2.1 -3 -2.3 -2.8 -2.4 -2.7 -2.6 -2.6 -2.7 -2.4 -2.9 -2.2 -3 -2.1 -3.1 -2 -3.2 -1.7 -3.3 -1.6 -3.4 -1.4 -3.5 -1.2 -3.5 -1 -3.6 -0.8 -3.7 -0.6 -3.7 -0.4 -3.7 -0.3 -3.7 0 -3.7 0.2 -3.8 0.4 -3.7 0.5 -3.7 0.8 -3.7 1 -3.6 1.1 -3.5 1.4 -3.5 1.5 -3.4 1.7 -3.4 1.9 -3.2 2.1 -3.1 2.2 -3 2.4 -2.9 2.5 -2.8 2.7 -2.6 2.8 -2.5 2.9 -2.3 3.1 -2.1 3.1 -2 3.3 -1.9 3.4 -1.6 3.4 -1.5 3.5 -1.2 3.6 -1.1 3.6 -0.9 3.7 -0.7 3.7 -0.5 3.8 -0.3 3.7 -0.1 258.6 0 1.4 -368.4 -2394 -12.3 -2.2 0 -3.7 -0.3 -3.7 -0.4 -3.7 -0.7 -3.7 -0.8 -3.6 -1 -3.5 -1.2 -3.5 -1.4 -3.4 -1.6 -3.3 -1.8 -3.2 -1.9 -3.1 -2.1 -2.9 -2.3 -2.9 -2.4 -2.7 -2.6 -134.79 -134.79 -11.36 -3.15 -15.77 -8.36 -13.6 -11.56 -10.8 -14.21 -7.49 -16.2 -1.62 -7.36 -909.67 -915.57 -1.6 -1.7 -2.5 -2.8 -2.3 -2.9 -2.1 -3.1 -2 -3.1 -1.9 -3.3 -1.6 -3.4 -1.5 -3.4 -1.2 -3.5 -1.1 -3.6 -0.9 -3.6 -0.7 -3.7 -0.5 -3.7 -0.3 -3.8 -0.1 -3.7 0 -157.51 -0.79 -0.88 -9.14 -15.84 -5.66 -17.4 -1.91 -18.19 1.91 -18.2 5.66 -17.39 9.14 -15.85 12.24 -13.59 14.8 -10.75 16.71 -7.44 17.9 -3.81 18.29 0 17.89 3.81 16.71 7.44 14.8 10.75 12.24 13.59 9.15 15.85 5.65 17.39 1.91 18.2 -1.91 18.19 -5.65 17.4 -9.15 15.84 -0.89 0.99zm1145.99 1023.75l16.58 6.6 14.77 10.02 12.27 12.96 9.21 15.29 5.7 16.91 1.93 17.75 -1.93 17.74 -5.7 16.92 -9.21 15.29 -12.27 12.96 -14.77 10.01 -16.58 6.61 -17.62 2.89 -17.82 -0.97 -17.2 -4.77 -15.77 -8.36 -13.6 -11.56 -10.8 -14.21 -7.49 -16.2 -3.84 -17.43 0 -17.85 3.84 -17.43 7.49 -16.2 10.8 -14.2 13.6 -11.56 15.77 -8.36 17.2 -4.77 17.82 -0.97 17.62 2.89zm532.35 79.53l-1.88 13.08 -5.49 12.02 -8.66 9.99 -11.12 7.14 -12.68 3.73 -13.21 0 -12.68 -3.73 -11.12 -7.14 -8.65 -9.99 -5.49 -12.02 -1.88 -13.08 1.88 -13.08 5.49 -12.02 8.65 -9.99 11.12 -7.15 12.68 -3.72 13.21 0 12.68 3.72 11.12 7.15 8.66 9.99 5.49 12.02 1.88 13.08zm-217.89 0l-1.93 17.74 -5.7 16.92 -9.2 15.29 -12.28 12.96 -14.77 10.01 -16.58 6.61 -17.62 2.89 -17.82 -0.97 -17.2 -4.77 -15.76 -8.36 -13.61 -11.56 -10.8 -14.21 -7.49 -16.2 -3.84 -17.43 0 -17.85 3.84 -17.43 7.49 -16.2 0.72 -0.95 0 -6.57 -823.09 -823.09 -16.2 -2.49 -17.55 -6.5 -15.88 -9.9 -3.28 -3.12 -260.5 0 -5.2 -0.2 -3.7 -0.4 -3.7 -0.5 -3.7 -0.8 -3.6 -1 -3.5 -1.1 -3.5 -1.4 -3.4 -1.5 -3.4 -1.7 -3.2 -1.9 -3.1 -2.1 -3 -2.2 -2.9 -2.4 -2.8 -2.5 -2.6 -2.7 -2.5 -2.8 -2.3 -2.9 -2.1 -3.1 -2 -3.1 -1.9 -3.3 -1.6 -3.4 -1.5 -3.4 -1.2 -3.5 -1.1 -3.6 -0.9 -3.6 -0.7 -3.7 -0.5 -3.7 -0.3 -3.8 -0.1 -3.7 0 -163.45 -2.89 -8.88 -1.91 -18.19 1.91 -18.2 5.66 -17.39 9.14 -15.85 12.24 -13.59 14.8 -10.75 16.71 -7.44 17.9 -3.81 18.29 0 17.89 3.81 16.71 7.44 14.8 10.75 12.24 13.59 9.15 15.85 5.65 17.39 1.91 18.2 -1.91 18.19 -5.65 17.4 -9.15 15.84 -12.24 13.59 -1.25 0.91 0 54.59 190.44 0 3.34 -3.17 15.88 -9.9 17.55 -6.5 18.5 -2.84 18.7 0.95 18.12 4.69 16.8 8.25 14.8 11.45 12.19 14.2 9.08 16.37 5.61 17.86 1.16 11.41 843.83 843.83 1.8 1.9 2.5 2.8 2.3 2.9 2.1 3.1 2 3.1 1.9 3.3 1.6 3.4 1.5 3.4 1.2 3.5 1.1 3.6 0.9 3.6 0.7 3.7 0.5 3.7 0.3 3.8 0.1 3.7 0 36.24 4.92 8.18 5.7 16.91 1.93 17.75zm877.15 -671.98l-172.63 255.31 1.04 10.27 -1.89 18.62 -5.6 17.86 -9.09 16.36 -12.19 14.2 -14.8 11.46 -16.8 8.24 -18.12 4.69 -18.69 0.95 -18.5 -2.83 -17.56 -6.5 -15.88 -9.91 -13.56 -12.89 -10.7 -15.36 -7.38 -17.2 -3.76 -18.33 0 -18.72 3.76 -18.33 7.38 -17.2 10.7 -15.36 13.56 -12.9 15.88 -9.9 16.54 -6.12 171.29 -253.31 129.91 -203.44 -0.72 -3.53 0 -18.71 3.76 -18.33 7.38 -17.2 10.7 -15.37 13.56 -12.89 15.89 -9.9 17.55 -6.5 18.5 -2.84 18.69 0.95 18.12 4.69 16.8 8.25 14.8 11.45 12.19 14.2 9.09 16.37 5.6 17.86 1.89 18.62 -1.89 18.62 -5.6 17.85 -9.09 16.37 -12.19 14.2 -14.8 11.46 -16.8 8.24 -5.35 1.39 -129.99 203.59 -1 1.5zm-4833.04 -877.42l8000 0 0 4673.6 -8000 0 -1.52 0 1.52 -4673.6zm2899.74 3070.37l-1.88 13.08 -5.49 12.02 -8.66 9.99 -11.12 7.15 -12.68 3.72 -13.21 0 -12.68 -3.72 -11.12 -7.15 -8.65 -9.99 -5.49 -12.02 -1.88 -13.08 1.88 -13.08 5.49 -12.02 8.65 -9.99 11.12 -7.14 12.68 -3.73 13.21 0 12.68 3.73 11.12 7.14 8.66 9.99 5.49 12.02 1.88 13.08zm-11.88 1072.35l-1.88 13.08 -5.49 12.02 -8.66 9.99 -11.12 7.15 -12.68 3.72 -13.21 0 -12.68 -3.72 -11.12 -7.15 -8.65 -9.99 -5.49 -12.02 -1.88 -13.08 1.88 -13.08 5.49 -12.02 8.65 -9.99 11.12 -7.14 12.68 -3.73 13.21 0 12.68 3.73 11.12 7.14 8.66 9.99 5.49 12.02 1.88 13.08zm528.68 -492.63l-1.88 13.08 -5.49 12.02 -8.66 9.99 -11.12 7.15 -12.68 3.72 -13.21 0 -12.68 -3.72 -11.12 -7.15 -8.65 -9.99 -5.49 -12.02 -1.88 -13.08 1.88 -13.08 5.49 -12.02 8.65 -9.99 11.12 -7.14 12.68 -3.73 13.21 0 12.68 3.73 11.12 7.14 8.66 9.99 5.49 12.02 1.88 13.08zm501.69 0.93l-1.88 13.08 -5.49 12.02 -8.66 9.99 -11.12 7.15 -12.68 3.72 -13.21 0 -12.68 -3.72 -11.12 -7.15 -8.65 -9.99 -5.49 -12.02 -1.88 -13.08 1.88 -13.08 5.49 -12.02 8.65 -9.99 11.12 -7.14 12.68 -3.73 13.21 0 12.68 3.73 11.12 7.14 8.66 9.99 5.49 12.02 1.88 13.08zm1283.8 10.79l-1.88 13.08 -5.49 12.02 -8.66 9.99 -11.12 7.15 -12.68 3.72 -13.21 0 -12.68 -3.72 -11.12 -7.15 -8.65 -9.99 -5.49 -12.02 -1.88 -13.08 1.88 -13.08 5.49 -12.02 8.65 -9.99 11.12 -7.14 12.68 -3.73 13.21 0 12.68 3.73 11.12 7.14 8.66 9.99 5.49 12.02 1.88 13.08zm-354.1 478.4l-1.88 13.08 -5.49 12.02 -8.66 9.99 -11.12 7.15 -12.68 3.72 -13.21 0 -12.68 -3.72 -11.12 -7.15 -8.65 -9.99 -5.49 -12.02 -1.88 -13.08 1.88 -13.08 5.49 -12.02 8.65 -9.99 11.12 -7.14 12.68 -3.73 13.21 0 12.68 3.73 11.12 7.14 8.66 9.99 5.49 12.02 1.88 13.08zm2304.81 -467.74l-1.88 13.08 -5.49 12.02 -8.66 9.99 -11.12 7.15 -12.68 3.72 -13.21 0 -12.68 -3.72 -11.12 -7.15 -8.65 -9.99 -5.49 -12.02 -1.88 -13.08 1.88 -13.08 5.49 -12.02 8.65 -9.99 11.12 -7.14 12.68 -3.73 13.21 0 12.68 3.73 11.12 7.14 8.66 9.99 5.49 12.02 1.88 13.08zm-467.95 -477.39l-1.88 13.08 -5.49 12.02 -8.66 9.99 -11.12 7.15 -12.68 3.72 -13.21 0 -12.68 -3.72 -11.12 -7.15 -8.65 -9.99 -5.49 -12.02 -1.88 -13.08 1.88 -13.08 5.49 -12.02 8.65 -9.99 11.12 -7.14 12.68 -3.73 13.21 0 12.68 3.73 11.12 7.14 8.66 9.99 5.49 12.02 1.88 13.08zm771 -33.95l-1.88 13.08 -5.49 12.02 -8.66 9.99 -11.12 7.15 -12.68 3.72 -13.21 0 -12.68 -3.72 -11.12 -7.15 -8.65 -9.99 -5.49 -12.02 -1.88 -13.08 1.88 -13.08 5.49 -12.02 8.65 -9.99 11.12 -7.14 12.68 -3.73 13.21 0 12.68 3.73 11.12 7.14 8.66 9.99 5.49 12.02 1.88 13.08zm12.63 -497.9l-1.88 13.08 -5.49 12.02 -8.66 9.99 -11.12 7.15 -12.68 3.72 -13.21 0 -12.68 -3.72 -11.12 -7.15 -8.65 -9.99 -5.49 -12.02 -1.88 -13.08 1.88 -13.08 5.49 -12.02 8.65 -9.99 11.12 -7.14 12.68 -3.73 13.21 0 12.68 3.73 11.12 7.14 8.66 9.99 5.49 12.02 1.88 13.08zm-781.72 31.98l-1.88 13.08 -5.49 12.02 -8.66 9.99 -11.12 7.15 -12.68 3.72 -13.21 0 -12.68 -3.72 -11.12 -7.15 -8.65 -9.99 -5.49 -12.02 -1.88 -13.08 1.88 -13.08 5.49 -12.02 8.65 -9.99 11.12 -7.14 12.68 -3.73 13.21 0 12.68 3.73 11.12 7.14 8.66 9.99 5.49 12.02 1.88 13.08zm-1221.66 301.36l-1.88 13.08 -5.49 12.02 -8.66 9.99 -11.12 7.15 -12.68 3.72 -13.21 0 -12.68 -3.72 -11.12 -7.15 -8.65 -9.99 -5.49 -12.02 -1.88 -13.08 1.88 -13.08 5.49 -12.02 8.65 -9.99 11.12 -7.14 12.68 -3.73 13.21 0 12.68 3.73 11.12 7.14 8.66 9.99 5.49 12.02 1.88 13.08zm-260 0l-1.88 13.08 -5.49 12.02 -8.66 9.99 -11.12 7.15 -12.68 3.72 -13.21 0 -12.68 -3.72 -11.12 -7.15 -8.65 -9.99 -5.49 -12.02 -1.88 -13.08 1.88 -13.08 5.49 -12.02 8.65 -9.99 11.12 -7.14 12.68 -3.73 13.21 0 12.68 3.73 11.12 7.14 8.66 9.99 5.49 12.02 1.88 13.08zm-255 0l-1.88 13.08 -5.49 12.02 -8.66 9.99 -11.12 7.15 -12.68 3.72 -13.21 0 -12.68 -3.72 -11.12 -7.15 -8.65 -9.99 -5.49 -12.02 -1.88 -13.08 1.88 -13.08 5.49 -12.02 8.65 -9.99 11.12 -7.14 12.68 -3.73 13.21 0 12.68 3.73 11.12 7.14 8.66 9.99 5.49 12.02 1.88 13.08zm-0.97 -758.08l-1.88 13.08 -5.49 12.02 -8.66 9.99 -11.12 7.15 -12.68 3.72 -13.21 0 -12.68 -3.72 -11.12 -7.15 -8.65 -9.99 -5.49 -12.02 -1.88 -13.08 1.88 -13.08 5.49 -12.02 8.65 -9.99 11.12 -7.14 12.68 -3.73 13.21 0 12.68 3.73 11.12 7.14 8.66 9.99 5.49 12.02 1.88 13.08zm248.67 -0.96l-1.88 13.08 -5.49 12.02 -8.66 9.99 -11.12 7.15 -12.68 3.72 -13.21 0 -12.68 -3.72 -11.12 -7.15 -8.65 -9.99 -5.49 -12.02 -1.88 -13.08 1.88 -13.08 5.49 -12.02 8.65 -9.99 11.12 -7.14 12.68 -3.73 13.21 0 12.68 3.73 11.12 7.14 8.66 9.99 5.49 12.02 1.88 13.08zm521.33 0.96l-1.88 13.08 -5.49 12.02 -8.66 9.99 -11.12 7.15 -12.68 3.72 -13.21 0 -12.68 -3.72 -11.12 -7.15 -8.65 -9.99 -5.49 -12.02 -1.88 -13.08 1.88 -13.08 5.49 -12.02 8.65 -9.99 11.12 -7.14 12.68 -3.73 13.21 0 12.68 3.73 11.12 7.14 8.66 9.99 5.49 12.02 1.88 13.08zm-270 0l-1.88 13.08 -5.49 12.02 -8.66 9.99 -11.12 7.15 -12.68 3.72 -13.21 0 -12.68 -3.72 -11.12 -7.15 -8.65 -9.99 -5.49 -12.02 -1.88 -13.08 1.88 -13.08 5.49 -12.02 8.65 -9.99 11.12 -7.14 12.68 -3.73 13.21 0 12.68 3.73 11.12 7.14 8.66 9.99 5.49 12.02 1.88 13.08zm251.46 764.62l-1.88 13.08 -5.49 12.02 -8.66 9.99 -11.12 7.15 -12.68 3.72 -13.21 0 -12.68 -3.72 -11.12 -7.15 -8.65 -9.99 -5.49 -12.02 -1.88 -13.08 1.88 -13.08 5.49 -12.02 8.65 -9.99 11.12 -7.14 12.68 -3.73 13.21 0 12.68 3.73 11.12 7.14 8.66 9.99 5.49 12.02 1.88 13.08zm-1090.34 -1857.95l-1.88 13.08 -5.49 12.02 -8.66 9.99 -11.12 7.14 -12.68 3.73 -13.21 0 -12.68 -3.73 -11.12 -7.14 -8.65 -9.99 -5.49 -12.02 -1.88 -13.08 1.88 -13.08 5.49 -12.02 8.65 -9.99 11.12 -7.15 12.68 -3.72 13.21 0 12.68 3.72 11.12 7.15 8.66 9.99 5.49 12.02 1.88 13.08zm365.56 -559.32l-1.88 13.08 -5.49 12.02 -8.66 9.99 -11.12 7.14 -12.68 3.73 -13.21 0 -12.68 -3.73 -11.12 -7.14 -8.65 -9.99 -5.49 -12.02 -1.88 -13.08 1.88 -13.08 5.49 -12.02 8.65 -9.99 11.12 -7.15 12.68 -3.72 13.21 0 12.68 3.72 11.12 7.15 8.66 9.99 5.49 12.02 1.88 13.08zm-1061.95 963.56l-1.88 13.08 -5.49 12.02 -8.66 9.99 -11.12 7.14 -12.68 3.73 -13.21 0 -12.68 -3.73 -11.12 -7.14 -8.65 -9.99 -5.49 -12.02 -1.88 -13.08 1.88 -13.08 5.49 -12.02 8.65 -9.99 11.12 -7.15 12.68 -3.72 13.21 0 12.68 3.72 11.12 7.15 8.66 9.99 5.49 12.02 1.88 13.08zm-885.53 -963.07l-1.88 13.08 -5.49 12.02 -8.66 9.99 -11.12 7.14 -12.68 3.73 -13.21 0 -12.68 -3.73 -11.12 -7.14 -8.65 -9.99 -5.49 -12.02 -1.88 -13.08 1.88 -13.08 5.49 -12.02 8.65 -9.99 11.12 -7.15 12.68 -3.72 13.21 0 12.68 3.72 11.12 7.15 8.66 9.99 5.49 12.02 1.88 13.08zm-309.65 -191.1l-1.88 13.08 -5.49 12.02 -8.66 9.99 -11.12 7.14 -12.68 3.73 -13.21 0 -12.68 -3.73 -11.12 -7.14 -8.65 -9.99 -5.49 -12.02 -1.88 -13.08 1.88 -13.08 5.49 -12.02 8.65 -9.99 11.12 -7.15 12.68 -3.72 13.21 0 12.68 3.72 11.12 7.15 8.66 9.99 5.49 12.02 1.88 13.08zm-61.93 748.46l-1.88 13.08 -5.49 12.02 -8.66 9.99 -11.12 7.14 -12.68 3.73 -13.21 0 -12.68 -3.73 -11.12 -7.14 -8.65 -9.99 -5.49 -12.02 -1.88 -13.08 1.88 -13.08 5.49 -12.02 8.65 -9.99 11.12 -7.15 12.68 -3.72 13.21 0 12.68 3.72 11.12 7.15 8.66 9.99 5.49 12.02 1.88 13.08zm1009.33 405.71l-1.88 13.08 -5.49 12.02 -8.66 9.99 -11.12 7.14 -12.68 3.73 -13.21 0 -12.68 -3.73 -11.12 -7.14 -8.65 -9.99 -5.49 -12.02 -1.88 -13.08 1.88 -13.08 5.49 -12.02 8.65 -9.99 11.12 -7.15 12.68 -3.72 13.21 0 12.68 3.72 11.12 7.15 8.66 9.99 5.49 12.02 1.88 13.08zm-260.12 -0.56l-1.88 13.08 -5.49 12.02 -8.66 9.99 -11.12 7.14 -12.68 3.73 -13.21 0 -12.68 -3.73 -11.12 -7.14 -8.65 -9.99 -5.49 -12.02 -1.88 -13.08 1.88 -13.08 5.49 -12.02 8.65 -9.99 11.12 -7.15 12.68 -3.72 13.21 0 12.68 3.72 11.12 7.15 8.66 9.99 5.49 12.02 1.88 13.08zm-755.89 0.56l-1.88 13.08 -5.49 12.02 -8.66 9.99 -11.12 7.14 -12.68 3.73 -13.21 0 -12.68 -3.73 -11.12 -7.14 -8.65 -9.99 -5.49 -12.02 -1.88 -13.08 1.88 -13.08 5.49 -12.02 8.65 -9.99 11.12 -7.15 12.68 -3.72 13.21 0 12.68 3.72 11.12 7.15 8.66 9.99 5.49 12.02 1.88 13.08zm-254 0l-1.88 13.08 -5.49 12.02 -8.66 9.99 -11.12 7.14 -12.68 3.73 -13.21 0 -12.68 -3.73 -11.12 -7.14 -8.65 -9.99 -5.49 -12.02 -1.88 -13.08 1.88 -13.08 5.49 -12.02 8.65 -9.99 11.12 -7.15 12.68 -3.72 13.21 0 12.68 3.72 11.12 7.15 8.66 9.99 5.49 12.02 1.88 13.08zm-254 0l-1.88 13.08 -5.49 12.02 -8.66 9.99 -11.12 7.14 -12.68 3.73 -13.21 0 -12.68 -3.73 -11.12 -7.14 -8.65 -9.99 -5.49 -12.02 -1.88 -13.08 1.88 -13.08 5.49 -12.02 8.65 -9.99 11.12 -7.15 12.68 -3.72 13.21 0 12.68 3.72 11.12 7.15 8.66 9.99 5.49 12.02 1.88 13.08zm-254 0l-1.88 13.08 -5.49 12.02 -8.66 9.99 -11.12 7.14 -12.68 3.73 -13.21 0 -12.68 -3.73 -11.12 -7.14 -8.65 -9.99 -5.49 -12.02 -1.88 -13.08 1.88 -13.08 5.49 -12.02 8.65 -9.99 11.12 -7.15 12.68 -3.72 13.21 0 12.68 3.72 11.12 7.15 8.66 9.99 5.49 12.02 1.88 13.08zm-266.23 0l-1.88 13.08 -5.49 12.02 -8.66 9.99 -11.12 7.14 -12.68 3.73 -13.21 0 -12.68 -3.73 -11.12 -7.14 -8.65 -9.99 -5.49 -12.02 -1.88 -13.08 1.88 -13.08 5.49 -12.02 8.65 -9.99 11.12 -7.15 12.68 -3.72 13.21 0 12.68 3.72 11.12 7.15 8.66 9.99 5.49 12.02 1.88 13.08zm-241.68 -1.97l-1.88 13.08 -5.49 12.02 -8.66 9.99 -11.12 7.14 -12.68 3.73 -13.21 0 -12.68 -3.73 -11.12 -7.14 -8.65 -9.99 -5.49 -12.02 -1.88 -13.08 1.88 -13.08 5.49 -12.02 8.65 -9.99 11.12 -7.15 12.68 -3.72 13.21 0 12.68 3.72 11.12 7.15 8.66 9.99 5.49 12.02 1.88 13.08zm0 0l-1.88 13.08 -5.49 12.02 -8.66 9.99 -11.12 7.14 -12.68 3.73 -13.21 0 -12.68 -3.73 -11.12 -7.14 -8.65 -9.99 -5.49 -12.02 -1.88 -13.08 1.88 -13.08 5.49 -12.02 8.65 -9.99 11.12 -7.15 12.68 -3.72 13.21 0 12.68 3.72 11.12 7.15 8.66 9.99 5.49 12.02 1.88 13.08zm-254.09 1.97l-1.88 13.08 -5.49 12.02 -8.66 9.99 -11.12 7.14 -12.68 3.73 -13.21 0 -12.68 -3.73 -11.12 -7.14 -8.65 -9.99 -5.49 -12.02 -1.88 -13.08 1.88 -13.08 5.49 -12.02 8.65 -9.99 11.12 -7.15 12.68 -3.72 13.21 0 12.68 3.72 11.12 7.15 8.66 9.99 5.49 12.02 1.88 13.08zm-254 0l-1.88 13.08 -5.49 12.02 -8.66 9.99 -11.12 7.14 -12.68 3.73 -13.21 0 -12.68 -3.73 -11.12 -7.14 -8.65 -9.99 -5.49 -12.02 -1.88 -13.08 1.88 -13.08 5.49 -12.02 8.65 -9.99 11.12 -7.15 12.68 -3.72 13.21 0 12.68 3.72 11.12 7.15 8.66 9.99 5.49 12.02 1.88 13.08zm-254 0l-1.88 13.08 -5.49 12.02 -8.66 9.99 -11.12 7.14 -12.68 3.73 -13.21 0 -12.68 -3.73 -11.12 -7.14 -8.65 -9.99 -5.49 -12.02 -1.88 -13.08 1.88 -13.08 5.49 -12.02 8.65 -9.99 11.12 -7.15 12.68 -3.72 13.21 0 12.68 3.72 11.12 7.15 8.66 9.99 5.49 12.02 1.88 13.08zm716.54 -1138.59l-1.88 13.08 -5.49 12.02 -8.66 9.99 -11.12 7.14 -12.68 3.73 -13.21 0 -12.68 -3.73 -11.12 -7.14 -8.65 -9.99 -5.49 -12.02 -1.88 -13.08 1.88 -13.08 5.49 -12.02 8.65 -9.99 11.12 -7.15 12.68 -3.72 13.21 0 12.68 3.72 11.12 7.15 8.66 9.99 5.49 12.02 1.88 13.08zm255.72 -1.69l-1.88 13.08 -5.49 12.02 -8.66 9.99 -11.12 7.14 -12.68 3.73 -13.21 0 -12.68 -3.73 -11.12 -7.14 -8.65 -9.99 -5.49 -12.02 -1.88 -13.08 1.88 -13.08 5.49 -12.02 8.65 -9.99 11.12 -7.15 12.68 -3.72 13.21 0 12.68 3.72 11.12 7.15 8.66 9.99 5.49 12.02 1.88 13.08zm619.49 -14.16l-1.88 13.08 -5.49 12.02 -8.66 9.99 -11.12 7.14 -12.68 3.73 -13.21 0 -12.68 -3.73 -11.12 -7.14 -8.65 -9.99 -5.49 -12.02 -1.88 -13.08 1.88 -13.08 5.49 -12.02 8.65 -9.99 11.12 -7.15 12.68 -3.72 13.21 0 12.68 3.72 11.12 7.15 8.66 9.99 5.49 12.02 1.88 13.08zm254.88 0l-1.88 13.08 -5.49 12.02 -8.66 9.99 -11.12 7.14 -12.68 3.73 -13.21 0 -12.68 -3.73 -11.12 -7.14 -8.65 -9.99 -5.49 -12.02 -1.88 -13.08 1.88 -13.08 5.49 -12.02 8.65 -9.99 11.12 -7.15 12.68 -3.72 13.21 0 12.68 3.72 11.12 7.15 8.66 9.99 5.49 12.02 1.88 13.08zm693.37 2678.44l-1.88 13.08 -5.49 12.02 -8.66 9.99 -11.12 7.15 -12.68 3.72 -13.21 0 -12.68 -3.72 -11.12 -7.15 -8.65 -9.99 -5.49 -12.02 -1.88 -13.08 1.88 -13.08 5.49 -12.02 8.65 -9.99 11.12 -7.14 12.68 -3.73 13.21 0 12.68 3.73 11.12 7.14 8.66 9.99 5.49 12.02 1.88 13.08zm242.03 -0.81l-1.88 13.08 -5.49 12.02 -8.66 9.99 -11.12 7.15 -12.68 3.72 -13.21 0 -12.68 -3.72 -11.12 -7.15 -8.65 -9.99 -5.49 -12.02 -1.88 -13.08 1.88 -13.08 5.49 -12.02 8.65 -9.99 11.12 -7.14 12.68 -3.73 13.21 0 12.68 3.73 11.12 7.14 8.66 9.99 5.49 12.02 1.88 13.08zm265.98 0.81l-1.88 13.08 -5.49 12.02 -8.66 9.99 -11.12 7.15 -12.68 3.72 -13.21 0 -12.68 -3.72 -11.12 -7.15 -8.65 -9.99 -5.49 -12.02 -1.88 -13.08 1.88 -13.08 5.49 -12.02 8.65 -9.99 11.12 -7.14 12.68 -3.73 13.21 0 12.68 3.73 11.12 7.14 8.66 9.99 5.49 12.02 1.88 13.08zm254 0l-1.88 13.08 -5.49 12.02 -8.66 9.99 -11.12 7.15 -12.68 3.72 -13.21 0 -12.68 -3.72 -11.12 -7.15 -8.65 -9.99 -5.49 -12.02 -1.88 -13.08 1.88 -13.08 5.49 -12.02 8.65 -9.99 11.12 -7.14 12.68 -3.73 13.21 0 12.68 3.73 11.12 7.14 8.66 9.99 5.49 12.02 1.88 13.08zm-1270.01 0l-1.88 13.08 -5.49 12.02 -8.66 9.99 -11.12 7.15 -12.68 3.72 -13.21 0 -12.68 -3.72 -11.12 -7.15 -8.65 -9.99 -5.49 -12.02 -1.88 -13.08 1.88 -13.08 5.49 -12.02 8.65 -9.99 11.12 -7.14 12.68 -3.73 13.21 0 12.68 3.73 11.12 7.14 8.66 9.99 5.49 12.02 1.88 13.08zm-254 0l-1.88 13.08 -5.49 12.02 -8.66 9.99 -11.12 7.15 -12.68 3.72 -13.21 0 -12.68 -3.72 -11.12 -7.15 -8.65 -9.99 -5.49 -12.02 -1.88 -13.08 1.88 -13.08 5.49 -12.02 8.65 -9.99 11.12 -7.14 12.68 -3.73 13.21 0 12.68 3.73 11.12 7.14 8.66 9.99 5.49 12.02 1.88 13.08zm-254 0l-1.88 13.08 -5.49 12.02 -8.66 9.99 -11.12 7.15 -12.68 3.72 -13.21 0 -12.68 -3.72 -11.12 -7.15 -8.65 -9.99 -5.49 -12.02 -1.88 -13.08 1.88 -13.08 5.49 -12.02 8.65 -9.99 11.12 -7.14 12.68 -3.73 13.21 0 12.68 3.73 11.12 7.14 8.66 9.99 5.49 12.02 1.88 13.08zm-254 0l-1.88 13.08 -5.49 12.02 -8.66 9.99 -11.12 7.15 -12.68 3.72 -13.21 0 -12.68 -3.72 -11.12 -7.15 -8.65 -9.99 -5.49 -12.02 -1.88 -13.08 1.88 -13.08 5.49 -12.02 8.65 -9.99 11.12 -7.14 12.68 -3.73 13.21 0 12.68 3.73 11.12 7.14 8.66 9.99 5.49 12.02 1.88 13.08zm-254 0l-1.88 13.08 -5.49 12.02 -8.66 9.99 -11.12 7.15 -12.68 3.72 -13.21 0 -12.68 -3.72 -11.12 -7.15 -8.65 -9.99 -5.49 -12.02 -1.88 -13.08 1.88 -13.08 5.49 -12.02 8.65 -9.99 11.12 -7.14 12.68 -3.73 13.21 0 12.68 3.73 11.12 7.14 8.66 9.99 5.49 12.02 1.88 13.08zm-254 0l-1.88 13.08 -5.49 12.02 -8.66 9.99 -11.12 7.15 -12.68 3.72 -13.21 0 -12.68 -3.72 -11.12 -7.15 -8.65 -9.99 -5.49 -12.02 -1.88 -13.08 1.88 -13.08 5.49 -12.02 8.65 -9.99 11.12 -7.14 12.68 -3.73 13.21 0 12.68 3.73 11.12 7.14 8.66 9.99 5.49 12.02 1.88 13.08zm-254 0l-1.88 13.08 -5.49 12.02 -8.66 9.99 -11.12 7.15 -12.68 3.72 -13.21 0 -12.68 -3.72 -11.12 -7.15 -8.65 -9.99 -5.49 -12.02 -1.88 -13.08 1.88 -13.08 5.49 -12.02 8.65 -9.99 11.12 -7.14 12.68 -3.73 13.21 0 12.68 3.73 11.12 7.14 8.66 9.99 5.49 12.02 1.88 13.08zm-254 0l-1.88 13.08 -5.49 12.02 -8.66 9.99 -11.12 7.15 -12.68 3.72 -13.21 0 -12.68 -3.72 -11.12 -7.15 -8.65 -9.99 -5.49 -12.02 -1.88 -13.08 1.88 -13.08 5.49 -12.02 8.65 -9.99 11.12 -7.14 12.68 -3.73 13.21 0 12.68 3.73 11.12 7.14 8.66 9.99 5.49 12.02 1.88 13.08zm-254 0l-1.88 13.08 -5.49 12.02 -8.66 9.99 -11.12 7.15 -12.68 3.72 -13.21 0 -12.68 -3.72 -11.12 -7.15 -8.65 -9.99 -5.49 -12.02 -1.88 -13.08 1.88 -13.08 5.49 -12.02 8.65 -9.99 11.12 -7.14 12.68 -3.73 13.21 0 12.68 3.73 11.12 7.14 8.66 9.99 5.49 12.02 1.88 13.08z"/>
 </g>
</svg>
