<?xml version="1.0" encoding="UTF-8"?>
<!DOCTYPE svg PUBLIC "-//W3C//DTD SVG 1.1//EN" "http://www.w3.org/Graphics/SVG/1.1/DTD/svg11.dtd">
<!-- Creator: CorelDRAW 2021 (64-Bit Evaluation Version) -->
<svg xmlns="http://www.w3.org/2000/svg" xml:space="preserve" width="112mm" height="223mm" version="1.1" style="shape-rendering:geometricPrecision; text-rendering:geometricPrecision; image-rendering:optimizeQuality; fill-rule:evenodd; clip-rule:evenodd"
viewBox="0 0 11200 22300"
 xmlns:xlink="http://www.w3.org/1999/xlink"
 xmlns:xodm="http://www.corel.com/coreldraw/odm/2003">
 <defs>
  <style type="text/css">
   <![CDATA[
    .str1 {stroke:black;stroke-width:20;stroke-miterlimit:22.9256}
    .str0 {stroke:#373435;stroke-width:7.62;stroke-miterlimit:22.9256}
    .fil0 {fill:none}
   ]]>
  </style>
 </defs>
 <g id="Layer_x0020_1">
  <metadata id="CorelCorpID_0Corel-Layer"/>
  <g id="_2070610193168">
   <path class="fil0 str0" d="M6338.52 16148.9l473.62 0m-1940.15 0l0 -757.74 144.43 0 0 757.74m514.78 0l0 -757.54 144.44 0 0 757.54m1136.5 0l0 -757.7 144.43 0 0 757.7m-762.96 1.7l0 -755.49 144.44 0 0 755.49m-2103.36 -0.34l-0.18 -758.27 144.43 0 0 756.91m-142.54 -9997.96l-0.18 758.26 144.43 0 0 -756.9m1814.67 -1.7l0 755.48 144.44 0 0 -755.48m474.09 1.7l0 757.7 144.42 0 0 -757.7m-1425.36 0l0 757.54 144.44 0 0 -757.54m-803.65 0l0 757.74 144.43 0 0 -757.74m1938.44 9996.6l391.18 0 0 -9997.22 -390.36 0m-143.54 0l-474.09 0m-144.44 0l-517.97 0m-144.44 0l-514.78 0m-144.43 0l-493.05 0m-144.25 0l-394.02 0 0 9997.22 392.31 0m144.25 0l493.05 0m144.43 0l514.78 0m144.44 0l518.45 0"/>
   <path class="fil0 str0" d="M6069.52 10563.52l0 -655.32c246.44,51.14 380.52,-88.95 380.52,-329.11 0,-154.01 -86.97,-367.5 -260.93,-401.41 -355.16,-69.5 -279.06,439.21 -529.14,913.99 -115.98,220.7 -355.16,293.53 -637.84,238.49 -619.72,-147.87 -790.05,-681.59 -790.05,-1185.28 0,-497.03 192.05,-969.58 822.68,-806.71l0 667.15c-101.5,-22.78 -177.58,-7.77 -231.95,41.71 -54.37,46.15 -83.35,127.31 -83.35,240.72 0,153.44 108.71,308.02 239.2,333.57 192.04,37.25 253.67,-164.01 304.41,-330.78 112.35,-381.94 155.84,-960.13 862.56,-822.27 550.88,107.85 812.42,659.38 812.42,1216.43 0,412.58 -96.62,770.25 -430.99,878.82m-2068.55 0l-172.08 -33.76 0 33.76m2616.63 -2980.87l-2616.63 -512.05 0 667.16 2616.63 512.03 0 -667.14zm-1848.3 5388.87c-630.63,-162.91 -822.68,309.67 -822.68,806.69 0,503.7 170.33,1037.4 790.05,1185.31 282.68,55.03 521.86,-17.8 637.84,-238.53 250.08,-474.78 173.98,-983.49 529.14,-913.97 173.96,33.89 260.93,247.39 260.93,401.4 0,240.17 -134.08,380.27 -380.52,329.11l0 667.16c710.34,128.99 888.53,-330.26 888.53,-890.65 0,-557.07 -261.54,-1108.56 -812.42,-1216.41 -706.72,-137.91 -750.21,440.29 -862.56,822.24 -50.74,166.78 -112.37,368.06 -304.41,330.79 -130.49,-25.57 -239.2,-180.13 -239.2,-333.58 0,-113.41 28.98,-194.58 83.35,-240.72 54.37,-49.47 130.45,-64.5 231.95,-41.69l0 -667.15zm-596.25 -2408l335.28 65.76 0 1167.51 540.03 105.63 0 -1074.11 507.35 98.95 0 1074.11 554.53 108.41 0 -1167.49 507.36 99.51 0 1834.66 -2616.63 -512.04 0 -1800.9m1783.09 0l0 11.82c187.41,34.04 337.73,27.08 457.54,-11.82"/>
  </g>
  <rect class="fil0 str1" x="2248.55" y="4260.7" width="6693.03" height="13779.77"/>
 </g>
</svg>
